<?xml version="1.0" encoding="UTF-8"?>
<svg id="Layer_2" data-name="Layer 2" xmlns="http://www.w3.org/2000/svg" xmlns:xlink="http://www.w3.org/1999/xlink" viewBox="0 0 829.79 30">
  <defs>
    <style>
      .cls-1 {
        fill: #858392;
      }

      .cls-2 {
        fill: url(#New_Gradient_Swatch_1);
      }

      .cls-3 {
        fill: #fffaf1;
      }
    </style>
    <linearGradient id="New_Gradient_Swatch_1" data-name="New Gradient Swatch 1" x1="65.39" y1="17.18" x2="564.87" y2="17.18" gradientUnits="userSpaceOnUse">
      <stop offset="0" stop-color="#6b50ff"/>
      <stop offset="1" stop-color="#ff60ff"/>
    </linearGradient>
  </defs>
  <g id="Footer_Flat" data-name="Footer Flat">
    <g>
      <g>
        <path class="cls-3" style="fill: #fffaf1;" d="M738.02,22.67c1.17,0,2.25-.49,3.09-1.18.52-.42,1.05-.31,1.16.19.04.19.05.38.05.58,0,2.2-1.76,4.84-6.19,4.84-3.61,0-6.09-1.6-5.66-6.48l.43-4.94c.26-3.1,1.42-5.74,3.68-7.21,1.19-.77,2.71-1.2,4.57-1.2,2.91,0,3.84,1.17,3.84,2.44,0,.78-.37,1.61-.95,2.09-.05.04-.15.08-.26.06-.51-.09-.99-.14-1.47-.14-1.06,0-2.02.23-2.72.87-.6.53-.99,1.37-1.09,2.54l-.46,5.07c-.13,1.43.3,2.47,1.99,2.47Z"/>
        <path class="cls-3" style="fill: #fffaf1;" d="M758.96,11.48l-1.06,12.35c-.1,1.03-.43,1.84-1.16,2.27-1.13.7-2.18,1-3.18,1s-1.42-.57-1.36-1.27l1.06-12.41c.07-.67-.13-1-.7-1-.36,0-.93.1-1.19.27-.56.33-.79.7-.86,1.3l-.86,9.95c-.1,1.13-.6,1.84-1.29,2.3-.99.67-2.15.87-3.14.87s-1.33-.57-1.23-1.63l1.92-22.16c.1-1.04.43-1.94,1.16-2.37,1.06-.63,2.18-.93,3.18-.93.93,0,1.46.5,1.39,1.17,0,0-.76,8.06-.78,8.2-.02.14.18.35.39.11.32-.37.89-.97,1.36-1.3.89-.6,1.89-.9,3.01-.9,2.42,0,3.61,1.27,3.35,4.21Z"/>
        <path class="cls-3" style="fill: #fffaf1;" d="M788.24,12.29c-.07.14-.26.38-.55.32-.48-.12-.97-.15-1.43-.12-1.75.07-3.18,1.1-3.34,2.94l-.7,8.51c-.1,1.13-.6,1.83-1.29,2.3-.99.67-2.15.87-3.14.87s-1.33-.57-1.23-1.64l1.29-14.88c.1-1.03.43-1.94,1.16-2.37,1.06-.63,2.12-.93,3.11-.93.93,0,1.33.5,1.26,1.17l-.11,1.29s-.03.2.15.25.25-.14.28-.21c.55-1.24,1.6-2.5,3.32-2.5,1.46,0,2.05.87,2.05,2.07,0,.88-.3,1.91-.84,2.94Z"/>
        <path class="cls-3" style="fill: #fffaf1;" d="M810.06,26.1c-1.13.7-2.19,1-3.18,1s-1.42-.57-1.36-1.27l1.09-12.95c.06-.67-.03-1-.6-1-.36,0-.83.1-1.09.27-.53.33-.83.8-.86,1.34l-.89,10.35c-.1,1.04-.43,1.84-1.16,2.27-1.13.7-2.19,1-3.18,1s-1.42-.57-1.36-1.27l1.09-12.95c.07-.67-.03-1-.6-1-.36,0-.86.1-1.13.27-.56.33-.79.7-.86,1.3l-.89,10.48c-.1,1.14-.6,1.84-1.29,2.3-.99.67-2.15.87-3.14.87s-1.33-.57-1.23-1.64l1.29-14.88c.1-1.04.43-1.94,1.16-2.37,1.06-.63,2.12-.94,3.11-.94.93,0,1.33.5,1.26,1.17,0,0-.06.67-.09.91-.02.21.23.3.36.12.15-.21.66-.76,1.02-1.02.99-.8,2.12-1.17,3.41-1.17,2.15,0,2.87.97,3.2,2.05.07.24.3.18.38.08.17-.21.76-.76,1.16-1.06.96-.73,2.06-1.07,3.31-1.07,2.42,0,3.55,1.27,3.28,4.21l-1.06,12.35c-.1,1.04-.43,1.84-1.16,2.27Z"/>
        <path class="cls-3" style="fill: #fffaf1;" d="M824.42,30h-11.13c-.83,0-1.36-.4-1.36-1.27,0-1.6.53-2.57,1.65-2.57h11.09c.86,0,1.39.4,1.39,1.27,0,1.6-.53,2.57-1.65,2.57Z"/>
        <path class="cls-3" style="fill: #fffaf1;" d="M773.76,7.61c-.73-.2-1.92-.33-3.24-.33-2.48,0-4.6.77-6.26,1.9-1.85,1.27-3.01,3.17-3.31,6.64l-.5,5.77c-.23,2.8.73,5.51,3.81,5.51,1.66,0,2.65-.67,3.44-1.5.27-.27.55-.74.67-.98.12-.24.44-.18.4.1-.04.27-.11,1.22-.11,1.22-.06.67.33,1.17,1.26,1.17s1.92-.3,3.05-1c.76-.47,1.06-1.24,1.16-2.27l1.22-14.42c.07-.9-.23-1.43-1.59-1.8ZM768.8,21.43c-.03.5-.26.93-.63,1.2-.3.23-.66.37-1.09.37-.73,0-1.09-.4-1.03-1.34l.66-7.61c.07-.83.3-1.5.66-1.94.4-.47.93-.73,1.59-.73.33,0,.56.03.7.07l-.86,9.98Z"/>
        <path class="cls-3" style="fill: #fffaf1;" d="M826.01,23.05h1.54v.35h-.56v1.63h-.43v-1.63h-.55v-.35ZM827.77,23.05h.48l.52,1.48.52-1.48h.49v1.98h-.43v-.35c0-.25.02-.53.03-.81l-.41,1.11h-.4l-.42-1.12c.02.28.03.55.03.81v.35h-.43v-1.98Z"/>
      </g>
      <g>
        <path class="cls-1" style="fill: #858392;" d="M4.55,22.63c-.05-.17-.13-.33-.22-.46-.09-.14-.2-.26-.33-.35s-.28-.17-.44-.22c-.17-.05-.35-.08-.54-.08-.35,0-.66.09-.94.26s-.49.44-.65.78c-.16.34-.23.76-.23,1.25s.08.91.23,1.26c.16.34.37.6.65.78.28.18.6.27.97.27.33,0,.62-.06.86-.19.24-.13.43-.31.56-.54.13-.24.2-.51.2-.83l.27.04h-1.78v-.93h2.66v.79c0,.56-.12,1.04-.36,1.45s-.57.72-.98.94-.9.33-1.44.33c-.6,0-1.13-.14-1.59-.41-.46-.27-.81-.66-1.06-1.16-.25-.5-.38-1.1-.38-1.79,0-.53.08-1,.23-1.42.15-.42.36-.77.63-1.06.27-.29.59-.51.95-.67.36-.15.76-.23,1.19-.23.36,0,.7.05,1.01.16.31.11.59.25.84.45.24.19.44.42.6.69.16.27.26.56.31.88h-1.21Z"/>
        <path class="cls-1" style="fill: #858392;" d="M9.08,27.19c-.49,0-.92-.1-1.27-.31-.36-.21-.63-.5-.82-.88-.19-.38-.29-.82-.29-1.34s.1-.95.29-1.33.46-.68.81-.89c.35-.21.76-.32,1.22-.32.3,0,.59.05.86.15.27.1.51.25.72.45.21.2.37.46.49.77.12.31.18.68.18,1.11v.36h-4.02v-.78h2.92c0-.22-.05-.42-.14-.59s-.22-.31-.39-.41c-.17-.1-.36-.15-.58-.15-.24,0-.44.06-.62.17-.18.11-.32.26-.42.45s-.15.39-.15.61v.68c0,.29.05.53.16.73.1.2.25.36.44.47s.41.16.66.16c.17,0,.32-.02.46-.07s.25-.12.35-.21c.1-.09.18-.21.23-.35l1.08.12c-.07.29-.2.53-.39.75-.19.21-.43.38-.73.49-.3.12-.64.17-1.02.17Z"/>
        <path class="cls-1" style="fill: #858392;" d="M13.4,24.21v2.88h-1.16v-4.91h1.11v.83h.06c.11-.27.29-.49.54-.66.25-.16.56-.24.92-.24.34,0,.63.07.89.22.25.15.45.35.59.63.14.27.21.61.21,1v3.13h-1.16v-2.95c0-.33-.08-.58-.25-.77s-.4-.28-.7-.28c-.2,0-.38.04-.54.13-.16.09-.28.22-.37.38-.09.17-.13.37-.13.6Z"/>
        <path class="cls-1" style="fill: #858392;" d="M19.9,27.19c-.49,0-.92-.1-1.27-.31-.36-.21-.63-.5-.82-.88-.19-.38-.29-.82-.29-1.34s.1-.95.29-1.33.46-.68.81-.89c.35-.21.76-.32,1.22-.32.3,0,.59.05.86.15.27.1.51.25.72.45.21.2.37.46.49.77.12.31.18.68.18,1.11v.36h-4.02v-.78h2.92c0-.22-.05-.42-.14-.59s-.22-.31-.39-.41c-.17-.1-.36-.15-.58-.15-.24,0-.44.06-.62.17-.18.11-.32.26-.42.45s-.15.39-.15.61v.68c0,.29.05.53.16.73.1.2.25.36.44.47s.41.16.66.16c.17,0,.32-.02.46-.07s.25-.12.35-.21c.1-.09.18-.21.23-.35l1.08.12c-.07.29-.2.53-.39.75-.19.21-.43.38-.73.49-.3.12-.64.17-1.02.17Z"/>
        <path class="cls-1" style="fill: #858392;" d="M23.06,27.09v-4.91h1.12v.82h.05c.09-.28.24-.5.46-.66.22-.15.47-.23.75-.23.06,0,.14,0,.22,0,.08,0,.15.01.2.02v1.06s-.13-.03-.23-.05-.21-.02-.31-.02c-.21,0-.4.04-.57.14-.17.09-.3.22-.4.38-.1.16-.14.34-.14.55v2.89h-1.16Z"/>
        <path class="cls-1" style="fill: #858392;" d="M27.96,27.19c-.31,0-.59-.06-.84-.17-.25-.11-.44-.28-.59-.5-.14-.22-.22-.49-.22-.81,0-.28.05-.51.15-.69.1-.18.24-.33.42-.43.18-.11.38-.19.6-.25s.45-.1.69-.12c.29-.03.52-.06.7-.08.18-.02.31-.06.39-.12.08-.05.12-.13.12-.25v-.02c0-.24-.07-.43-.21-.56s-.35-.2-.62-.2c-.28,0-.51.06-.67.19s-.28.27-.33.44l-1.08-.15c.09-.3.23-.55.42-.75.2-.2.44-.35.72-.45s.6-.15.94-.15c.24,0,.47.03.71.08.23.05.45.15.64.27.19.13.35.3.47.52.12.22.18.49.18.82v3.29h-1.11v-.67h-.04c-.07.14-.17.26-.3.38-.13.12-.29.21-.48.28-.19.07-.41.11-.67.11ZM28.26,26.34c.23,0,.43-.05.6-.14.17-.09.3-.22.39-.37.09-.15.14-.32.14-.5v-.58s-.1.06-.18.08c-.09.03-.18.05-.29.07-.11.02-.21.04-.32.05-.1.01-.19.03-.27.04-.17.02-.33.06-.46.12-.14.05-.24.13-.32.22-.08.09-.12.22-.12.37,0,.21.08.37.23.48.16.11.35.16.59.16Z"/>
        <path class="cls-1" style="fill: #858392;" d="M34.17,22.18v.89h-2.82v-.89h2.82ZM32.04,21h1.16v4.61c0,.16.02.27.07.36s.11.14.19.17c.08.03.17.04.26.04.07,0,.14,0,.2-.02s.11-.02.14-.03l.19.9c-.06.02-.15.04-.26.07s-.25.04-.42.04c-.29,0-.55-.04-.78-.13-.23-.1-.42-.25-.55-.45-.14-.21-.2-.46-.2-.77v-4.8Z"/>
        <path class="cls-1" style="fill: #858392;" d="M37.26,27.19c-.49,0-.92-.1-1.27-.31-.36-.21-.63-.5-.82-.88-.19-.38-.29-.82-.29-1.34s.1-.95.29-1.33.46-.68.81-.89c.35-.21.76-.32,1.22-.32.3,0,.59.05.86.15.27.1.51.25.72.45.21.2.37.46.49.77.12.31.18.68.18,1.11v.36h-4.02v-.78h2.92c0-.22-.05-.42-.14-.59s-.22-.31-.39-.41c-.17-.1-.36-.15-.58-.15-.24,0-.44.06-.62.17-.18.11-.32.26-.42.45s-.15.39-.15.61v.68c0,.29.05.53.16.73.1.2.25.36.44.47s.41.16.66.16c.17,0,.32-.02.46-.07s.25-.12.35-.21c.1-.09.18-.21.23-.35l1.08.12c-.07.29-.2.53-.39.75-.19.21-.43.38-.73.49-.3.12-.64.17-1.02.17Z"/>
        <path class="cls-1" style="fill: #858392;" d="M42.24,27.18c-.39,0-.73-.1-1.04-.3s-.55-.49-.72-.86c-.18-.38-.27-.83-.27-1.37s.09-1.01.27-1.38.42-.66.73-.85c.31-.19.65-.29,1.03-.29.29,0,.52.05.71.15.19.1.33.21.44.35.11.14.19.26.25.38h.05v-2.45h1.16v6.55h-1.14v-.77h-.07c-.06.12-.15.25-.26.38-.11.13-.26.25-.45.34-.19.09-.42.14-.7.14ZM42.56,26.23c.25,0,.45-.07.63-.2.17-.13.3-.32.39-.56.09-.24.13-.52.13-.83s-.04-.59-.13-.83-.22-.42-.39-.55-.38-.19-.63-.19-.47.07-.65.2c-.17.13-.3.32-.39.56s-.13.51-.13.81.04.58.13.82.22.43.39.57c.17.14.39.21.64.21Z"/>
        <path class="cls-1" style="fill: #858392;" d="M48.37,27.09v-6.55h1.16v2.45h.05c.06-.12.14-.25.25-.38.11-.13.26-.25.44-.35.19-.1.42-.15.71-.15.38,0,.72.1,1.03.29.31.19.55.48.73.85s.27.84.27,1.38-.09,1-.27,1.37c-.18.38-.42.67-.72.86-.31.2-.65.3-1.04.3-.28,0-.51-.05-.7-.14-.19-.09-.33-.21-.45-.34-.11-.13-.2-.26-.26-.38h-.07v.77h-1.14ZM49.51,24.64c0,.32.04.59.14.83.09.24.22.42.39.56.17.13.38.2.62.2s.47-.07.64-.21c.17-.14.3-.33.39-.57s.13-.51.13-.82-.04-.58-.13-.81-.22-.42-.39-.56c-.17-.13-.39-.2-.65-.2s-.46.06-.63.19c-.17.13-.3.31-.39.55s-.13.51-.13.83Z"/>
        <path class="cls-1" style="fill: #858392;" d="M54.55,28.93c-.16,0-.3-.01-.44-.04-.13-.02-.24-.05-.32-.08l.27-.9c.17.05.32.07.45.07.13,0,.25-.04.35-.12s.19-.21.26-.4l.1-.26-1.78-5.01h1.23l1.13,3.71h.05l1.13-3.71h1.23l-1.97,5.5c-.09.26-.21.48-.36.67s-.34.33-.55.43c-.22.1-.48.15-.78.15Z"/>
      </g>
      <path class="cls-2" style="fill: url(#New_Gradient_Swatch_1);" d="M231.62,27.33l11.22-20.29h.84l-11.22,20.29h-.84ZM236.25,27.33l11.22-20.29h-.84l-11.22,20.29h.84ZM240.04,27.33l11.22-20.29h-.84l-11.22,20.29h.84ZM243.84,27.33l11.22-20.29h-.84l-11.22,20.29h.84ZM247.63,27.33l11.22-20.29h-.84l-11.22,20.29h.84ZM251.43,27.33l11.22-20.29h-.84l-11.22,20.29h.84ZM255.22,27.33l11.22-20.29h-.84l-11.22,20.29h.84ZM259.02,27.33l11.22-20.29h-.84l-11.22,20.29h.84ZM262.82,27.33l11.22-20.29h-.84l-11.22,20.29h.84ZM266.61,27.33l11.22-20.29h-.84l-11.22,20.29h.84ZM270.41,27.33l11.22-20.29h-.84l-11.22,20.29h.84ZM274.2,27.33l11.22-20.29h-.84l-11.22,20.29h.84ZM278,27.33l11.22-20.29h-.84l-11.22,20.29h.84ZM281.79,27.33l11.22-20.29h-.84l-11.22,20.29h.84ZM285.59,27.33l11.22-20.29h-.84l-11.22,20.29h.84ZM289.38,27.33l11.22-20.29h-.84l-11.22,20.29h.84ZM293.18,27.33l11.22-20.29h-.84l-11.22,20.29h.84ZM296.97,27.33l11.22-20.29h-.84l-11.22,20.29h.84ZM300.77,27.33l11.22-20.29h-.84l-11.22,20.29h.84ZM304.56,27.33l11.22-20.29h-.84l-11.22,20.29h.84ZM308.36,27.33l11.22-20.29h-.84l-11.22,20.29h.84ZM312.15,27.33l11.22-20.29h-.84l-11.22,20.29h.84ZM315.95,27.33l11.22-20.29h-.84l-11.22,20.29h.84ZM319.75,27.33l11.22-20.29h-.84l-11.22,20.29h.84ZM323.54,27.33l11.22-20.29h-.84l-11.22,20.29h.84ZM327.34,27.33l11.22-20.29h-.84l-11.22,20.29h.84ZM331.13,27.33l11.22-20.29h-.84l-11.22,20.29h.84ZM334.93,27.33l11.22-20.29h-.84l-11.22,20.29h.84ZM338.72,27.33l11.22-20.29h-.84l-11.22,20.29h.84ZM342.52,27.33l11.22-20.29h-.84l-11.22,20.29h.84ZM346.31,27.33l11.22-20.29h-.84l-11.22,20.29h.84ZM350.11,27.33l11.22-20.29h-.84l-11.22,20.29h.84ZM353.9,27.33l11.22-20.29h-.84l-11.22,20.29h.84ZM357.7,27.33l11.22-20.29h-.84l-11.22,20.29h.84ZM361.49,27.33l11.22-20.29h-.84l-11.22,20.29h.84ZM365.29,27.33l11.22-20.29h-.84l-11.22,20.29h.84ZM369.08,27.33l11.22-20.29h-.84l-11.22,20.29h.84ZM372.88,27.33l11.22-20.29h-.84l-11.22,20.29h.84ZM376.67,27.33l11.22-20.29h-.84l-11.22,20.29h.84ZM380.47,27.33l11.22-20.29h-.84l-11.22,20.29h.84ZM384.27,27.33l11.22-20.29h-.84l-11.22,20.29h.84ZM388.06,27.33l11.22-20.29h-.84l-11.22,20.29h.84ZM391.86,27.33l11.22-20.29h-.84l-11.22,20.29h.84ZM395.65,27.33l11.22-20.29h-.84l-11.22,20.29h.84ZM399.45,27.33l11.22-20.29h-.84l-11.22,20.29h.84ZM403.24,27.33l11.22-20.29h-.84l-11.22,20.29h.84ZM407.04,27.33l11.22-20.29h-.84l-11.22,20.29h.84ZM410.83,27.33l11.22-20.29h-.84l-11.22,20.29h.84ZM414.63,27.33l11.22-20.29h-.84l-11.22,20.29h.84ZM418.42,27.33l11.22-20.29h-.84l-11.22,20.29h.84ZM422.22,27.33l11.22-20.29h-.84l-11.22,20.29h.84ZM426.01,27.33l11.22-20.29h-.84l-11.22,20.29h.84ZM429.81,27.33l11.22-20.29h-.84l-11.22,20.29h.84ZM433.61,27.33l11.22-20.29h-.84l-11.22,20.29h.84ZM437.4,27.33l11.22-20.29h-.84l-11.22,20.29h.84ZM441.2,27.33l11.22-20.29h-.84l-11.22,20.29h.84ZM444.99,27.33l11.22-20.29h-.84l-11.22,20.29h.84ZM448.79,27.33l11.22-20.29h-.84l-11.22,20.29h.84ZM452.58,27.33l11.22-20.29h-.84l-11.22,20.29h.84ZM456.38,27.33l11.22-20.29h-.84l-11.22,20.29h.84ZM460.17,27.33l11.22-20.29h-.84l-11.22,20.29h.84ZM463.97,27.33l11.22-20.29h-.84l-11.22,20.29h.84ZM467.76,27.33l11.22-20.29h-.84l-11.22,20.29h.84ZM471.56,27.33l11.22-20.29h-.84l-11.22,20.29h.84ZM475.35,27.33l11.22-20.29h-.84l-11.22,20.29h.84ZM479.15,27.33l11.22-20.29h-.84l-11.22,20.29h.84ZM482.94,27.33l11.22-20.29h-.84l-11.22,20.29h.84ZM486.74,27.33l11.22-20.29h-.84l-11.22,20.29h.84ZM490.54,27.33l11.22-20.29h-.84l-11.22,20.29h.84ZM494.33,27.33l11.22-20.29h-.84l-11.22,20.29h.84ZM498.13,27.33l11.22-20.29h-.84l-11.22,20.29h.84ZM501.92,27.33l11.22-20.29h-.84l-11.22,20.29h.84ZM505.72,27.33l11.22-20.29h-.84l-11.22,20.29h.84ZM509.51,27.33l11.22-20.29h-.84l-11.22,20.29h.84ZM513.31,27.33l11.22-20.29h-.84l-11.22,20.29h.84ZM517.1,27.33l11.22-20.29h-.84l-11.22,20.29h.84ZM520.9,27.33l11.22-20.29h-.84l-11.22,20.29h.84ZM524.69,27.33l11.22-20.29h-.84l-11.22,20.29h.84ZM528.49,27.33l11.22-20.29h-.84l-11.22,20.29h.84ZM532.28,27.33l11.22-20.29h-.84l-11.22,20.29h.84ZM536.08,27.33l11.22-20.29h-.84l-11.22,20.29h.84ZM539.87,27.33l11.22-20.29h-.84l-11.22,20.29h.84ZM543.67,27.33l11.22-20.29h-.84l-11.22,20.29h.84ZM547.46,27.33l11.22-20.29h-.84l-11.22,20.29h.84ZM551.26,27.33l11.22-20.29h-.84l-11.22,20.29h.84ZM555.05,27.33l9.82-17.76v-1.51l-10.66,19.27h.84ZM558.85,27.33l6.02-10.89v-1.51l-6.86,12.41h.84ZM562.65,27.33l2.23-4.03v-1.51l-3.06,5.54h.84ZM228.66,27.33l11.22-20.29h-.84l-11.22,20.29h.84ZM224.86,27.33l11.22-20.29h-.84l-11.22,20.29h.84ZM221.07,27.33l11.22-20.29h-.84l-11.22,20.29h.84ZM217.27,27.33l11.22-20.29h-.84l-11.22,20.29h.84ZM213.48,27.33l11.22-20.29h-.84l-11.22,20.29h.84ZM209.68,27.33l11.22-20.29h-.84l-11.22,20.29h.84ZM205.89,27.33l11.22-20.29h-.84l-11.22,20.29h.84ZM202.09,27.33l11.22-20.29h-.84l-11.22,20.29h.84ZM198.29,27.33l11.22-20.29h-.84l-11.22,20.29h.84ZM194.5,27.33l11.22-20.29h-.84l-11.22,20.29h.84ZM190.7,27.33l11.22-20.29h-.84l-11.22,20.29h.84ZM197.29,7.04l-9.75,17.64v1.51l10.59-19.15h-.84ZM193.5,7.04l-5.96,10.77v1.51l6.79-12.29h-.84ZM189.7,7.04l-2.16,3.91v1.51l3-5.42h-.84ZM138.41,23.27v4.06h16.23v-4.06h-16.23ZM158.7,7.04v4.06h-16.23v-4.06h16.23ZM138.41,11.1h4.06v4.06h16.23v8.12h-4.06v-4.06h-16.23v-8.12ZM130.3,23.27v4.06h-12.17v-4.06h12.17ZM118.13,19.21v4.06h-4.06V7.04h4.06v12.17ZM130.3,7.04h4.06v16.23h-4.06V7.04ZM183.05,7.04v20.29h-4.06v-8.12h-12.17v8.12h-4.06V7.04h4.06v8.12h12.17V7.04h4.06ZM69.45,27.33v-4.06h16.23v4.06h-16.23ZM65.39,11.1h4.06v12.17h-4.06v-12.17ZM85.68,7.04v4.06h-16.23v-4.06h16.23ZM105.96,11.1h4.06v4.06h-4.06v-4.06ZM105.96,19.21h4.06v8.12h-4.06v-8.12ZM105.96,15.16v4.06h-12.17v8.12h-4.06V7.04h16.23v4.06h-12.17v4.06h12.17Z"/>
    </g>
  </g>
</svg>