<?xml version="1.0" encoding="UTF-8"?>
<svg id="Layer_2" data-name="Layer 2" xmlns="http://www.w3.org/2000/svg" xmlns:xlink="http://www.w3.org/1999/xlink" viewBox="0 0 829.47 42.99">
  <defs>
    <style>
      .cls-1 {
        fill: #ff6daa;
      }

      .cls-2 {
        fill: url(#linear-gradient);
      }

      .cls-3 {
        fill: #ff13a9;
      }

      .cls-4 {
        fill: #ff388b;
      }
    </style>
    <linearGradient id="linear-gradient" x1="0" y1="21.49" x2="772.24" y2="21.49" gradientUnits="userSpaceOnUse">
      <stop offset="0" stop-color="#6b50ff"/>
      <stop offset="1" stop-color="#ff6daa"/>
    </linearGradient>
  </defs>
  <g id="Header_HeartBit_04" data-name="Header HeartBit 04">
    <g>
      <path class="cls-2" d="M138.25,42.99v-12.2h6.1v12.2h-6.1ZM119.94,18.58h18.31v-6.1h-24.41v30.51h6.1v-12.2h18.31v-6.1h-18.31v-6.1ZM138.25,24.68h6.1v-6.1h-6.1v6.1ZM83.34,18.58h24.41v-6.1h-24.41v6.1ZM107.75,42.99v-6.1h-24.41v6.1h24.41ZM77.24,36.89h6.1v-18.31h-6.1v18.31ZM156.55,42.99h18.31v-6.1h-18.31v6.1ZM193.15,18.58h24.41v-6.1h-24.41v6.1ZM248.06,12.48v12.2h-18.31v-12.2h-6.1v30.51h6.1v-12.2h18.31v12.2h6.1V12.48h-6.1ZM187.05,30.78h24.41v6.1h6.1v-12.2h-24.41v-6.1h-6.1v12.2ZM187.05,42.99h24.41v-6.1h-24.41v6.1ZM174.85,36.89h6.1V12.48h-6.1v24.41ZM150.44,12.48v24.41h6.1V12.48h-6.1ZM84.5,1.09c.21-.21.5-.32.88-.32s.66.11.87.32c.21.21.31.51.31.91h.85c0-.61-.18-1.1-.55-1.46-.37-.36-.86-.54-1.48-.54s-1.13.18-1.5.53c-.37.35-.55.84-.55,1.46v3.13c0,.62.18,1.11.55,1.46.37.35.87.53,1.5.53s1.11-.18,1.48-.54c.37-.36.55-.84.55-1.46h-.85c0,.39-.1.69-.31.91-.21.21-.5.32-.87.32s-.67-.11-.88-.32c-.21-.21-.32-.51-.32-.91V1.99c0-.39.11-.69.32-.91ZM98.15,2.16c.34.3.51.73.51,1.27v3.59h-.84v-.95h-.02c-.05.32-.21.58-.48.76s-.63.28-1.08.28c-.54,0-.96-.15-1.28-.45-.32-.3-.47-.69-.47-1.18,0-.32.07-.6.22-.84.15-.24.35-.43.61-.56.26-.14.56-.2.89-.2h1.61v-.41c0-.68-.37-1.02-1.11-1.02-.33,0-.59.06-.8.18-.2.12-.31.29-.32.5h-.85c.03-.41.22-.75.57-1.02.35-.27.82-.4,1.4-.4.63,0,1.12.15,1.46.46ZM97.8,4.54h-1.52c-.28,0-.5.08-.68.25s-.26.39-.26.67.1.52.29.69c.19.17.46.25.8.25.42,0,.75-.1,1-.3.25-.2.37-.48.37-.83v-.73ZM91.27,1.71c-.4,0-.72.1-.96.28-.24.19-.38.46-.43.81h0V.09h-.85v6.93h.85v-3.32c0-.4.1-.72.31-.94.21-.22.49-.33.84-.33s.61.11.81.32.3.51.3.91v3.37h.85v-3.51c0-.56-.15-1-.46-1.32-.31-.32-.73-.48-1.25-.48ZM102.86,1.71c-.41,0-.73.1-.97.29-.24.2-.38.46-.43.8h-.02v-1h-.85v5.22h.85v-3.32c0-.4.1-.71.29-.93.2-.22.48-.32.85-.32.74,0,1.11.38,1.11,1.14v.45h.85v-.45c0-.6-.15-1.06-.44-1.39-.29-.33-.71-.49-1.26-.49ZM109.25,1.71c-.24,0-.44.07-.59.2-.16.13-.25.31-.3.54h0c-.07-.23-.18-.41-.34-.54-.16-.13-.35-.2-.58-.2-.24,0-.44.07-.59.22-.16.15-.25.34-.28.57h-.02v-.69h-.74v5.22h.8v-3.98c0-.21.05-.37.15-.49s.24-.18.42-.18.31.06.41.19c.1.12.15.29.15.5v3.98h.7v-3.98c0-.21.05-.37.15-.49s.24-.18.41-.18.32.06.42.19.15.29.15.5v3.98h.8v-3.97c0-.4-.1-.72-.3-.97s-.47-.38-.8-.38ZM115.54.09l-.31.97c-.03.09-.06.2-.08.34-.02.14-.04.25-.05.34-.01-.09-.03-.2-.06-.34-.03-.14-.06-.25-.09-.34l-.32-.97h-.76v3.42h.52V1.41c0-.18,0-.36-.03-.56-.02-.2-.03-.35-.05-.47.04.13.08.27.12.43.04.16.08.27.09.32l.31.99h.48l.28-.98c.02-.06.05-.17.1-.33.04-.16.08-.31.12-.43-.01.12-.03.28-.04.47-.02.2-.02.38-.02.56v2.1h.52V.09h-.74ZM111.06.57h.95v2.94h.57V.57h.95V.09h-2.47v.47ZM55.6,42.83l14.61-26.42v-2.27l-15.87,28.69h1.26ZM49.94,42.83L70.21,6.17v-2.27l-21.53,38.93h1.26ZM61.26,42.83l8.95-16.19v-2.27l-10.21,18.46h1.26ZM66.92,42.83l3.29-5.95v-2.27l-4.55,8.22h1.26ZM44.06,0l-23.68,42.83h1.26L45.32,0h-1.26ZM38.4,0L14.72,42.83h1.26L39.66,0h-1.26ZM32.74,0L9.06,42.83h1.26L34,0h-1.26ZM66.7,0l-23.68,42.83h1.26L67.96,0h-1.26ZM61.04,0l-23.68,42.83h1.26L62.3,0h-1.26ZM49.72,0l-23.68,42.83h1.26L50.98,0h-1.26ZM55.38,0l-23.68,42.83h1.26L56.64,0h-1.26ZM21.42,0L0,38.74v2.27L22.68,0h-1.26ZM15.76,0L0,28.51v2.27L17.02,0h-1.26ZM4.44,0L0,8.04v2.27L5.7,0h-1.26ZM10.1,0L0,18.27v2.27L11.36,0h-1.26ZM27.08,0L3.4,42.83h1.26L28.34,0h-1.26ZM390.92,0l-23.68,42.83h1.26L392.17,0h-1.26ZM368.09,0l-23.68,42.83h1.26L369.35,0h-1.26ZM362.38,0l-23.68,42.83h1.26L363.64,0h-1.26ZM379.5,0l-23.68,42.83h1.26L380.76,0h-1.26ZM385.21,0l-23.68,42.83h1.26L386.47,0h-1.26ZM356.68,0l-23.68,42.83h1.26L357.93,0h-1.26ZM373.8,0l-23.68,42.83h1.26L375.05,0h-1.26ZM316.73,0l-23.68,42.83h1.26L317.98,0h-1.26ZM328.14,0l-23.68,42.83h1.26L329.4,0h-1.26ZM350.97,0l-23.68,42.83h1.26L352.23,0h-1.26ZM396.63,0l-23.68,42.83h1.26L397.88,0h-1.26ZM322.43,0l-23.68,42.83h1.26L323.69,0h-1.26ZM333.85,0l-23.68,42.83h1.26L335.1,0h-1.26ZM345.26,0l-23.68,42.83h1.26L346.52,0h-1.26ZM339.56,0l-23.68,42.83h1.26L340.81,0h-1.26ZM465.11,0l-23.68,42.83h1.26L466.37,0h-1.26ZM311.02,0l-23.68,42.83h1.26L312.28,0h-1.26ZM459.4,0l-23.68,42.83h1.26L460.66,0h-1.26ZM470.82,0l-23.68,42.83h1.26L472.07,0h-1.26ZM402.33,0l-23.68,42.83h1.26L403.59,0h-1.26ZM487.94,0l-23.68,42.83h1.26L489.19,0h-1.26ZM447.99,0l-23.68,42.83h1.26L449.25,0h-1.26ZM482.23,0l-23.68,42.83h1.26L483.49,0h-1.26ZM476.52,0l-23.68,42.83h1.26L477.78,0h-1.26ZM453.69,0l-23.68,42.83h1.26L454.95,0h-1.26ZM413.75,0l-23.68,42.83h1.26L415,0h-1.26ZM408.04,0l-23.68,42.83h1.26L409.3,0h-1.26ZM419.45,0l-23.68,42.83h1.26L420.71,0h-1.26ZM436.57,0l-23.68,42.83h1.26L437.83,0h-1.26ZM425.16,0l-23.68,42.83h1.26L426.42,0h-1.26ZM442.28,0l-23.68,42.83h1.26L443.54,0h-1.26ZM430.87,0l-23.68,42.83h1.26L432.12,0h-1.26ZM288.19,0l-23.68,42.83h1.26L289.45,0h-1.26ZM282.48,0l-21.57,39v2.27L283.74,0h-1.26ZM299.61,0l-23.68,42.83h1.26L300.86,0h-1.26ZM305.31,0l-23.68,42.83h1.26L306.57,0h-1.26ZM293.9,0l-23.68,42.83h1.26L295.15,0h-1.26ZM493.64,0l-23.68,42.83h1.26L494.9,0h-1.26ZM533.59,0l-23.68,42.83h1.26L534.85,0h-1.26ZM739.05,0l-23.68,42.83h1.26L740.3,0h-1.26ZM744.75,0l-23.68,42.83h1.26L746.01,0h-1.26ZM750.46,0l-23.68,42.83h1.26L751.72,0h-1.26ZM733.34,0l-23.68,42.83h1.26L734.6,0h-1.26ZM756.17,0l-23.68,42.83h1.26L757.42,0h-1.26ZM727.63,0l-23.68,42.83h1.26L728.89,0h-1.26ZM767.58,0l-23.68,42.83h1.26L768.84,0h-1.26ZM761.87,0l-23.68,42.83h1.26L763.13,0h-1.26ZM699.1,0l-23.68,42.83h1.26L700.35,0h-1.26ZM693.39,0l-23.68,42.83h1.26L694.65,0h-1.26ZM766.73,42.83h1.26l4.25-7.69v-2.27l-5.51,9.96ZM687.68,0l-23.68,42.83h1.26L688.94,0h-1.26ZM681.98,0l-23.68,42.83h1.26L683.23,0h-1.26ZM716.22,0l-23.68,42.83h1.26L717.48,0h-1.26ZM704.8,0l-23.68,42.83h1.26L706.06,0h-1.26ZM721.93,0l-23.68,42.83h1.26L723.18,0h-1.26ZM710.51,0l-23.68,42.83h1.26L711.77,0h-1.26ZM265.36,0l-4.44,8.04v2.27l5.7-10.31h-1.26ZM271.07,0l-10.15,18.36v2.27l11.41-20.63h-1.26ZM276.78,0l-15.86,28.68v2.27L278.03,0h-1.26ZM755.31,42.83h1.26l15.67-28.33v-2.27l-16.92,30.6ZM749.61,42.83h1.26l21.37-38.65V1.9l-22.63,40.92ZM761.02,42.83h1.26l9.96-18.01v-2.27l-11.22,20.28ZM613.49,0l-23.68,42.83h1.26L614.75,0h-1.26ZM562.13,0l-23.68,42.83h1.26L563.39,0h-1.26ZM556.42,0l-23.68,42.83h1.26L557.68,0h-1.26ZM550.71,0l-23.68,42.83h1.26L551.97,0h-1.26ZM584.96,0l-23.68,42.83h1.26L586.21,0h-1.26ZM579.25,0l-23.68,42.83h1.26L580.51,0h-1.26ZM545.01,0l-23.68,42.83h1.26L546.26,0h-1.26ZM567.84,0l-23.68,42.83h1.26L569.09,0h-1.26ZM573.54,0l-23.68,42.83h1.26L574.8,0h-1.26ZM676.27,0l-23.68,42.83h1.26L677.53,0h-1.26ZM516.47,0l-23.68,42.83h1.26L517.73,0h-1.26ZM505.06,0l-23.68,42.83h1.26L506.32,0h-1.26ZM539.3,0l-23.68,42.83h1.26L540.56,0h-1.26ZM522.18,0l-23.68,42.83h1.26L523.44,0h-1.26ZM527.89,0l-23.68,42.83h1.26L529.14,0h-1.26ZM510.77,0l-23.68,42.83h1.26L512.02,0h-1.26ZM647.73,0l-23.68,42.83h1.26L648.99,0h-1.26ZM642.03,0l-23.68,42.83h1.26L643.28,0h-1.26ZM653.44,0l-23.68,42.83h1.26L654.7,0h-1.26ZM659.15,0l-23.68,42.83h1.26L660.41,0h-1.26ZM670.56,0l-23.68,42.83h1.26L671.82,0h-1.26ZM636.32,0l-23.68,42.83h1.26L637.58,0h-1.26ZM664.86,0l-23.68,42.83h1.26L666.11,0h-1.26ZM630.61,0l-23.68,42.83h1.26L631.87,0h-1.26ZM607.78,0l-23.68,42.83h1.26L609.04,0h-1.26ZM602.08,0l-23.68,42.83h1.26L603.33,0h-1.26ZM596.37,0l-23.68,42.83h1.26L597.63,0h-1.26ZM619.2,0l-23.68,42.83h1.26L620.46,0h-1.26ZM624.91,0l-23.68,42.83h1.26L626.16,0h-1.26ZM590.66,0l-23.68,42.83h1.26L591.92,0h-1.26ZM499.35,0l-23.68,42.83h1.26L500.61,0h-1.26Z"/>
      <g>
        <polygon id="Heart_Pink" data-name="Heart Pink" class="cls-1" points="801.86 7.13 801.86 3.48 799.3 3.48 799.3 0 786.59 0 786.59 3.48 782.65 3.48 782.65 7.13 779 7.13 779 25.24 782.65 25.24 782.65 30.73 786.59 30.73 786.59 35.49 791.98 35.49 791.98 38.05 796.37 38.05 796.37 40.24 799.85 40.24 799.85 42.99 808.61 42.99 808.61 40.24 812.09 40.24 812.09 38.05 816.48 38.05 816.48 35.49 821.87 35.49 821.87 30.73 825.81 30.73 825.81 25.24 829.47 25.24 829.47 7.13 825.81 7.13 825.81 3.48 821.87 3.48 821.87 0 809.16 0 809.16 3.48 806.6 3.48 806.6 7.13 801.86 7.13"/>
        <g>
          <rect id="Face_02" data-name="Face 02" x="809.31" y="16.07" width="2.16" height="5.85"/>
          <path d="M811.53,21.98h-2.27v-5.96h2.27v5.96Z"/>
        </g>
        <g>
          <rect id="Face_02-2" data-name="Face 02" x="796.99" y="16.07" width="2.16" height="5.85"/>
          <path d="M799.2,21.98h-2.27v-5.96h2.27v5.96Z"/>
        </g>
        <g>
          <rect id="Face_02-3" data-name="Face 02" class="cls-3" x="793.44" y="22.11" width="2.16" height="2.16"/>
          <path class="cls-4" d="M793.49,24.21h2.05v-2.05h-2.05v2.05Z"/>
        </g>
        <g>
          <rect id="Face_02-4" data-name="Face 02" class="cls-3" x="812.87" y="22.11" width="2.16" height="2.16"/>
          <path class="cls-4" d="M815.08,24.32h-2.27v-2.27h2.27v2.27Z"/>
        </g>
        <g>
          <rect id="Face_02-5" data-name="Face 02" x="802.42" y="22.11" width="3.62" height="2.16"/>
          <path d="M806.09,24.32h-3.73v-2.27h3.73v2.27Z"/>
        </g>
      </g>
    </g>
  </g>
</svg>