<?xml version="1.0" encoding="UTF-8"?>
<svg id="Layer_2" data-name="Layer 2" xmlns="http://www.w3.org/2000/svg" xmlns:xlink="http://www.w3.org/1999/xlink" viewBox="0 0 829.47 42.99">
  <defs>
    <style>
      .cls-1 {
        fill: url(#New_Gradient_Swatch_1);
      }
    </style>
    <linearGradient id="New_Gradient_Swatch_1" data-name="New Gradient Swatch 1" x1="0" y1="21.49" x2="829.47" y2="21.49" gradientUnits="userSpaceOnUse">
      <stop offset="0" stop-color="#6b50ff"/>
      <stop offset="1" stop-color="#ff60ff"/>
    </linearGradient>
  </defs>
  <g id="Header" data-name="Header">
    <path class="cls-1" style="fill: url(#New_Gradient_Swatch_1);" d="M70.21,36.88l-3.29,5.95h-1.26l4.55-8.22v2.27ZM70.21,24.37l-10.21,18.46h1.26l8.95-16.19v-2.27ZM70.21,14.13l-15.87,28.69h1.26l14.61-26.42v-2.27ZM70.21,3.9l-21.53,38.93h1.26L70.21,6.17v-2.27ZM66.7,0l-23.68,42.83h1.26L67.96,0h-1.26ZM61.04,0l-23.68,42.83h1.26L62.3,0h-1.26ZM55.38,0l-23.68,42.83h1.26L56.64,0h-1.26ZM49.72,0l-23.68,42.83h1.26L50.98,0h-1.26ZM44.06,0l-23.68,42.83h1.26L45.32,0h-1.26ZM38.4,0L14.72,42.83h1.26L39.66,0h-1.26ZM32.74,0L9.06,42.83h1.26L34,0h-1.26ZM27.08,0L3.4,42.83h1.26L28.34,0h-1.26ZM21.42,0L0,38.74v2.27L22.68,0h-1.26ZM15.76,0L0,28.51v2.27L17.02,0h-1.26ZM10.1,0L0,18.27v2.27L11.36,0h-1.26ZM4.44,0L0,8.04v2.27L5.7,0h-1.26ZM350.97,0l-23.68,42.83h1.26L352.23,0h-1.26ZM356.68,0l-23.68,42.83h1.26L357.93,0h-1.26ZM362.38,0l-23.68,42.83h1.26L363.64,0h-1.26ZM368.09,0l-23.68,42.83h1.26L369.35,0h-1.26ZM373.8,0l-23.68,42.83h1.26L375.05,0h-1.26ZM379.5,0l-23.68,42.83h1.26L380.76,0h-1.26ZM385.21,0l-23.68,42.83h1.26L386.47,0h-1.26ZM390.92,0l-23.68,42.83h1.26L392.17,0h-1.26ZM396.63,0l-23.68,42.83h1.26L397.88,0h-1.26ZM402.33,0l-23.68,42.83h1.26L403.59,0h-1.26ZM408.04,0l-23.68,42.83h1.26L409.3,0h-1.26ZM413.75,0l-23.68,42.83h1.26L415,0h-1.26ZM419.45,0l-23.68,42.83h1.26L420.71,0h-1.26ZM425.16,0l-23.68,42.83h1.26L426.42,0h-1.26ZM430.87,0l-23.68,42.83h1.26L432.12,0h-1.26ZM436.57,0l-23.68,42.83h1.26L437.83,0h-1.26ZM442.28,0l-23.68,42.83h1.26L443.54,0h-1.26ZM447.99,0l-23.68,42.83h1.26L449.25,0h-1.26ZM453.69,0l-23.68,42.83h1.26L454.95,0h-1.26ZM459.4,0l-23.68,42.83h1.26L460.66,0h-1.26ZM465.11,0l-23.68,42.83h1.26L466.37,0h-1.26ZM470.82,0l-23.68,42.83h1.26L472.07,0h-1.26ZM476.52,0l-23.68,42.83h1.26L477.78,0h-1.26ZM482.23,0l-23.68,42.83h1.26L483.49,0h-1.26ZM487.94,0l-23.68,42.83h1.26L489.19,0h-1.26ZM493.64,0l-23.68,42.83h1.26L494.9,0h-1.26ZM499.35,0l-23.68,42.83h1.26L500.61,0h-1.26ZM505.06,0l-23.68,42.83h1.26L506.32,0h-1.26ZM510.77,0l-23.68,42.83h1.26L512.02,0h-1.26ZM516.47,0l-23.68,42.83h1.26L517.73,0h-1.26ZM522.18,0l-23.68,42.83h1.26L523.44,0h-1.26ZM527.89,0l-23.68,42.83h1.26L529.14,0h-1.26ZM533.59,0l-23.68,42.83h1.26L534.85,0h-1.26ZM539.3,0l-23.68,42.83h1.26L540.56,0h-1.26ZM545.01,0l-23.68,42.83h1.26L546.26,0h-1.26ZM550.71,0l-23.68,42.83h1.26L551.97,0h-1.26ZM556.42,0l-23.68,42.83h1.26L557.68,0h-1.26ZM562.13,0l-23.68,42.83h1.26L563.39,0h-1.26ZM567.84,0l-23.68,42.83h1.26L569.09,0h-1.26ZM573.54,0l-23.68,42.83h1.26L574.8,0h-1.26ZM579.25,0l-23.68,42.83h1.26L580.51,0h-1.26ZM584.96,0l-23.68,42.83h1.26L586.21,0h-1.26ZM590.66,0l-23.68,42.83h1.26L591.92,0h-1.26ZM596.37,0l-23.68,42.83h1.26L597.63,0h-1.26ZM602.08,0l-23.68,42.83h1.26L603.33,0h-1.26ZM607.78,0l-23.68,42.83h1.26L609.04,0h-1.26ZM613.49,0l-23.68,42.83h1.26L614.75,0h-1.26ZM619.2,0l-23.68,42.83h1.26L620.46,0h-1.26ZM624.91,0l-23.68,42.83h1.26L626.16,0h-1.26ZM630.61,0l-23.68,42.83h1.26L631.87,0h-1.26ZM636.32,0l-23.68,42.83h1.26L637.58,0h-1.26ZM642.03,0l-23.68,42.83h1.26L643.28,0h-1.26ZM647.73,0l-23.68,42.83h1.26L648.99,0h-1.26ZM653.44,0l-23.68,42.83h1.26L654.7,0h-1.26ZM659.15,0l-23.68,42.83h1.26L660.41,0h-1.26ZM664.86,0l-23.68,42.83h1.26L666.11,0h-1.26ZM670.56,0l-23.68,42.83h1.26L671.82,0h-1.26ZM676.27,0l-23.68,42.83h1.26L677.53,0h-1.26ZM681.98,0l-23.68,42.83h1.26L683.23,0h-1.26ZM687.68,0l-23.68,42.83h1.26L688.94,0h-1.26ZM693.39,0l-23.68,42.83h1.26L694.65,0h-1.26ZM699.1,0l-23.68,42.83h1.26L700.35,0h-1.26ZM704.8,0l-23.68,42.83h1.26L706.06,0h-1.26ZM710.51,0l-23.68,42.83h1.26L711.77,0h-1.26ZM716.22,0l-23.68,42.83h1.26L717.48,0h-1.26ZM721.93,0l-23.68,42.83h1.26L723.18,0h-1.26ZM727.63,0l-23.68,42.83h1.26L728.89,0h-1.26ZM733.34,0l-23.68,42.83h1.26L734.6,0h-1.26ZM739.05,0l-23.68,42.83h1.26L740.3,0h-1.26ZM744.75,0l-23.68,42.83h1.26L746.01,0h-1.26ZM750.46,0l-23.68,42.83h1.26L751.72,0h-1.26ZM756.17,0l-23.68,42.83h1.26L757.42,0h-1.26ZM761.87,0l-23.68,42.83h1.26L763.13,0h-1.26ZM767.58,0l-23.68,42.83h1.26L768.84,0h-1.26ZM773.29,0l-23.68,42.83h1.26L774.55,0h-1.26ZM779,0l-23.68,42.83h1.26L780.25,0h-1.26ZM784.7,0l-23.68,42.83h1.26L785.96,0h-1.26ZM790.41,0l-23.68,42.83h1.26L791.67,0h-1.26ZM796.12,0l-23.68,42.83h1.26L797.37,0h-1.26ZM801.82,0l-23.68,42.83h1.26L803.08,0h-1.26ZM807.53,0l-23.68,42.83h1.26L808.79,0h-1.26ZM813.24,0l-23.68,42.83h1.26L814.5,0h-1.26ZM818.94,0l-23.68,42.83h1.26L820.2,0h-1.26ZM824.65,0l-23.68,42.83h1.26L825.91,0h-1.26ZM829.47,1.62l-22.79,41.21h1.26l21.53-38.94V1.62ZM829.47,11.94l-17.08,30.89h1.26l15.82-28.62v-2.27ZM829.47,22.26l-11.37,20.57h1.26l10.12-18.3v-2.27ZM829.47,32.58l-5.67,10.25h1.26l4.41-7.97v-2.27ZM345.26,0l-23.68,42.83h1.26L346.52,0h-1.26ZM339.56,0l-23.68,42.83h1.26L340.81,0h-1.26ZM333.85,0l-23.68,42.83h1.26L335.1,0h-1.26ZM328.14,0l-23.68,42.83h1.26L329.4,0h-1.26ZM322.43,0l-23.68,42.83h1.26L323.69,0h-1.26ZM316.73,0l-23.68,42.83h1.26L317.98,0h-1.26ZM311.02,0l-23.68,42.83h1.26L312.28,0h-1.26ZM305.31,0l-23.68,42.83h1.26L306.57,0h-1.26ZM299.61,0l-23.68,42.83h1.26L300.86,0h-1.26ZM293.9,0l-23.68,42.83h1.26L295.15,0h-1.26ZM288.19,0l-23.68,42.83h1.26L289.45,0h-1.26ZM282.48,0l-21.57,39v2.27L283.74,0h-1.26ZM276.78,0l-15.86,28.68v2.27L278.03,0h-1.26ZM271.07,0l-10.15,18.36v2.27l11.41-20.63h-1.26ZM265.36,0l-4.44,8.04v2.27l5.7-10.31h-1.26ZM83.34,42.99v-6.1h24.41v6.1h-24.41ZM119.94,24.68h18.31v6.1h-18.31v12.2h-6.1V12.48h24.41v6.1h-18.31v6.1ZM138.25,42.99v-12.2h6.1v12.2h-6.1ZM83.34,12.48h24.41v6.1h-24.41v-6.1ZM77.24,18.58h6.1v18.31h-6.1v-18.31ZM138.25,18.58h6.1v6.1h-6.1v-6.1ZM193.15,12.48h24.41v6.1h-24.41v-6.1ZM187.05,18.58h6.1v6.1h24.41v12.2h-6.1v-6.1h-24.41v-12.2ZM156.55,36.89h18.31v6.1h-18.31v-6.1ZM254.16,12.48v30.51h-6.1v-12.2h-18.31v12.2h-6.1V12.48h6.1v12.2h18.31v-12.2h6.1ZM156.55,30.78v6.1h-6.1V12.48h6.1v18.31ZM187.05,36.89h24.41v6.1h-24.41v-6.1ZM174.85,12.48h6.1v24.41h-6.1V12.48ZM86.85,6.58c.37-.36.55-.84.55-1.46h-.85c0,.39-.1.69-.31.91-.21.21-.5.32-.87.32s-.67-.11-.88-.32c-.21-.21-.32-.51-.32-.91V1.99c0-.39.11-.69.32-.91s.5-.32.88-.32.66.11.87.32c.21.21.31.51.31.91h.85c0-.61-.18-1.1-.55-1.46-.37-.36-.86-.54-1.48-.54s-1.13.18-1.5.53c-.37.35-.55.84-.55,1.46v3.13c0,.62.18,1.11.55,1.46.37.35.87.53,1.5.53s1.11-.18,1.48-.54ZM89.87,7.02v-3.32c0-.4.1-.72.31-.94.21-.22.49-.33.84-.33s.61.11.81.32.3.51.3.91v3.37h.85v-3.51c0-.56-.15-1-.46-1.32-.31-.32-.73-.48-1.25-.48-.4,0-.72.1-.96.28-.24.19-.38.46-.43.81h0V.09h-.85v6.93h.85ZM97.31,6.84c.27-.19.43-.44.48-.76h.02v.95h.84v-3.59c0-.54-.17-.97-.51-1.27s-.82-.46-1.46-.46c-.58,0-1.05.13-1.4.4-.35.27-.54.61-.57,1.02h.85c.01-.21.12-.38.32-.5.2-.12.47-.18.8-.18.74,0,1.11.34,1.11,1.02v.41h-1.61c-.34,0-.63.07-.89.2-.26.14-.46.32-.61.56-.15.24-.22.52-.22.84,0,.49.16.88.47,1.18.32.3.74.45,1.28.45.45,0,.81-.09,1.08-.28ZM95.64,6.14c-.19-.17-.29-.4-.29-.69s.09-.5.26-.67.4-.25.68-.25h1.52v.73c0,.35-.12.62-.37.83-.25.2-.58.3-1,.3-.34,0-.61-.08-.8-.25ZM101.45,7.02v-3.32c0-.4.1-.71.29-.93.2-.22.48-.32.85-.32.74,0,1.11.38,1.11,1.14v.45h.85v-.45c0-.6-.15-1.06-.44-1.39-.29-.33-.71-.49-1.26-.49-.41,0-.73.1-.97.29-.24.2-.38.46-.43.8h-.02v-1h-.85v5.22h.85ZM106.59,7.02v-3.98c0-.21.05-.37.15-.49s.24-.18.42-.18.31.06.41.19c.1.12.15.29.15.5v3.98h.7v-3.98c0-.21.05-.37.15-.49s.24-.18.41-.18.32.06.42.19.15.29.15.5v3.98h.8v-3.97c0-.4-.1-.72-.3-.97s-.47-.38-.8-.38c-.24,0-.44.07-.59.2-.16.13-.25.31-.3.54h0c-.07-.23-.18-.41-.34-.54-.16-.13-.35-.2-.58-.2-.24,0-.44.07-.59.22-.16.15-.25.34-.28.57h-.02v-.69h-.74v5.22h.8ZM112.58,3.51V.57h.95V.09h-2.47v.47h.95v2.94h.57ZM114.38,3.51V1.41c0-.18,0-.36-.03-.56-.02-.2-.03-.35-.05-.47.04.13.08.27.12.43.04.16.08.27.09.32l.31.99h.48l.28-.98c.02-.06.05-.17.1-.33.04-.16.08-.31.12-.43-.01.12-.03.28-.04.47-.02.2-.02.38-.02.56v2.1h.52V.09h-.74l-.31.97c-.03.09-.06.2-.08.34-.02.14-.04.25-.05.34-.01-.09-.03-.2-.06-.34-.03-.14-.06-.25-.09-.34l-.32-.97h-.76v3.42h.52Z"/>
  </g>
</svg>
